<?xml version="1.0" encoding="UTF-8" standalone="no"?>

<svg
   version="1.1"
   id="svg6555"
   width="880"
   height="880"
   viewBox="0 0 880 880"
   sodipodi:docname="corn-icon-publicdomainvectors.org.svg"
   inkscape:version="1.2 (dc2aedaf03, 2022-05-15)"
   xmlns:inkscape="http://www.inkscape.org/namespaces/inkscape"
   xmlns:sodipodi="http://sodipodi.sourceforge.net/DTD/sodipodi-0.dtd"
   xmlns="http://www.w3.org/2000/svg"
   xmlns:svg="http://www.w3.org/2000/svg">
  <defs
     id="defs6559">
    <clipPath
       clipPathUnits="userSpaceOnUse"
       id="clipPath6571">
      <path
         d="M 0,660 H 660 V 0 H 0 Z"
         id="path6569" />
    </clipPath>
  </defs>
  <sodipodi:namedview
     id="namedview6557"
     pagecolor="#ffffff"
     bordercolor="#000000"
     borderopacity="0.25"
     inkscape:showpageshadow="2"
     inkscape:pageopacity="0.0"
     inkscape:pagecheckerboard="0"
     inkscape:deskcolor="#d1d1d1"
     showgrid="false"
     inkscape:zoom="0.95113636"
     inkscape:cx="441.05137"
     inkscape:cy="440.52569"
     inkscape:window-width="1920"
     inkscape:window-height="1017"
     inkscape:window-x="-8"
     inkscape:window-y="-8"
     inkscape:window-maximized="1"
     inkscape:current-layer="g6563">
    <inkscape:page
       x="0"
       y="0"
       id="page6561"
       width="880"
       height="880" />
  </sodipodi:namedview>
  <g
     id="g6563"
     inkscape:groupmode="layer"
     inkscape:label="Page 1"
     transform="matrix(1.3333333,0,0,-1.3333333,0,880)">
    <g
       id="g6565">
      <g
         id="g6567"
         clip-path="url(#clipPath6571)">
        <g
           id="g6573"
           transform="translate(163.9199,189.8633)">
          <path
             d="m 0,0 15.208,-15.208 c 10.494,-10.494 10.494,-27.666 0,-38.16 L -5.255,-73.83 c -10.493,-10.494 -27.664,-10.494 -38.159,0 l -15.208,15.207 c -10.494,10.494 -10.494,27.666 0,38.16 L -38.159,0 C -27.664,10.493 -10.495,10.493 0,0"
             style="fill:#75870c;fill-opacity:1;fill-rule:evenodd;stroke:none"
             id="path6575" />
        </g>
        <g
           id="g6577"
           transform="translate(181.6572,139.416)">
          <path
             d="m 0,0 c -0.764,-1.02 -1.604,-1.997 -2.529,-2.921 l -20.463,-20.462 c -10.493,-10.494 -27.664,-10.494 -38.159,0 l -15.208,15.207 16.656,-8.157 c 11.552,-5.659 25.058,-2.756 33.267,7.149 l 6.23,7.519 -39.008,48.793 z"
             style="fill:#5e6e06;fill-opacity:1;fill-rule:evenodd;stroke:none"
             id="path6579" />
        </g>
        <g
           id="g6581"
           transform="translate(512.1523,522.8862)">
          <path
             d="m 0,0 v 0 c 59.424,-59.424 59.424,-156.664 0,-216.086 l -146.94,-146.94 c -59.422,-59.423 -156.662,-59.423 -216.085,0 -59.426,59.424 -59.426,156.663 0,216.087 L -216.087,0 C -156.663,59.424 -59.425,59.424 0,0"
             style="fill:#ffbb00;fill-opacity:1;fill-rule:evenodd;stroke:none"
             id="path6583" />
        </g>
        <g
           id="g6585"
           transform="translate(521.8887,317.5195)">
          <path
             d="m 0,0 c -3.047,-3.689 -6.287,-7.271 -9.736,-10.72 l -146.941,-146.939 c -59.422,-59.423 -156.662,-59.423 -216.085,0 -2.041,2.041 -4.006,4.132 -5.907,6.259 l 1.083,1.084 c 25.314,25.312 64.269,31.242 95.974,14.851 30.85,-15.951 66.775,-10.372 91.336,14.187 l 95.282,95.284 C -69.317,-0.318 -32.917,8.342 0,0"
             style="fill:#f5ac00;fill-opacity:1;fill-rule:evenodd;stroke:none"
             id="path6587" />
        </g>
        <g
           id="g6589"
           transform="translate(155.3867,153.9531)">
          <path
             d="m 0,0 c -2.13,1.902 -4.22,3.867 -6.26,5.907 -59.426,59.424 -59.426,156.663 0,216.087 l 146.939,146.939 c 3.449,3.449 7.03,6.69 10.718,9.738 8.342,-32.918 -0.317,-69.318 -25.994,-94.995 L 30.12,188.393 C 5.561,163.833 -0.017,127.907 15.934,97.057 32.324,65.353 26.395,26.396 1.081,1.085 Z"
             style="fill:#f5ac00;fill-opacity:1;fill-rule:evenodd;stroke:none"
             id="path6591" />
        </g>
        <g
           id="g6593"
           transform="translate(466.7432,417.8608)">
          <path
             d="M 0,0 34.059,34.059 3.2,62.817 -25.558,93.676 -59.616,59.617 -28.69,30.927 Z m -51.101,-51.1 42.911,42.91 -30.926,28.69 -28.69,30.927 -42.912,-42.911 30.927,-28.69 z m -51.099,-51.102 42.909,42.912 -30.927,28.689 -28.69,30.927 -42.909,-42.909 30.926,-28.692 z m -51.1,-51.099 42.909,42.91 -30.927,28.69 -28.691,30.927 -42.909,-42.911 30.928,-28.69 z m -51.101,-51.1 42.91,42.909 -30.927,28.691 -28.69,30.926 -42.91,-42.911 30.927,-28.69 z m -42.249,-42.25 34.059,34.059 -30.927,28.69 -28.69,30.926 -34.059,-34.059 30.86,-28.756 z m 138.196,351.573 7.673,-7.118 28.081,-26.051 27.574,27.573 c 2.516,2.516 5.206,4.758 8.03,6.731 l -14.576,15.64 -9.712,10.422 c -16.033,-3.393 -30.853,-10.981 -42.76,-22.886 z m -51.1,-51.101 7.671,-7.117 28.083,-26.052 43.857,43.857 -26.051,28.082 -7.117,7.673 z m -51.1,-51.1 7.671,-7.117 28.084,-26.053 43.855,43.858 -26.051,28.082 -7.118,7.672 z m -51.101,-51.1 7.673,-7.118 28.082,-26.052 43.856,43.857 -26.05,28.083 -7.118,7.672 z m -51.102,-51.101 7.674,-7.118 28.081,-26.051 43.857,43.857 -26.051,28.083 -7.117,7.671 z m -31.854,-51.728 10.423,-9.712 15.639,-14.576 c 1.973,2.826 4.215,5.515 6.732,8.03 l 27.572,27.574 -26.052,28.081 -7.118,7.674 -4.31,-4.312 c -11.904,-11.905 -19.491,-26.724 -22.886,-42.759 m 390.017,102.371 4.31,4.311 c 11.905,11.904 19.493,26.725 22.886,42.758 L 62.081,7.945 46.44,22.52 c -1.973,-2.824 -4.214,-5.513 -6.73,-8.03 l -27.574,-27.573 26.05,-28.082 z m -51.102,-51.101 46.443,46.442 -7.672,7.119 -28.083,26.051 -43.856,-43.857 26.051,-28.082 z m -51.1,-51.1 46.443,46.442 -7.672,7.118 -28.083,26.052 -43.857,-43.858 26.052,-28.082 z m -51.1,-51.101 46.442,46.442 -7.673,7.118 -28.082,26.052 -43.856,-43.858 26.051,-28.081 z m -51.102,-51.1 46.443,46.443 -7.671,7.117 -28.083,26.051 -43.857,-43.857 26.052,-28.083 z m -51.725,-31.855 c 16.033,3.393 30.851,10.981 42.758,22.886 l 4.31,4.31 -7.671,7.118 -28.083,26.052 -27.572,-27.573 c -2.518,-2.516 -5.206,-4.758 -8.032,-6.731 l 14.576,-15.64 z M 68.455,53.793 C 75.9,35.933 79.141,17.142 78.063,-0.896 l 11.565,-12.409 c -0.092,-1.374 -0.197,-2.747 -0.326,-4.118 L 77.587,-6.506 C 75.42,-26.072 68.053,-44.523 55.334,-59.647 l 15.842,-17.078 c -0.614,-1.12 -1.243,-2.233 -1.888,-3.341 L 51.683,-63.733 C 51.081,-64.37 50.473,-65 49.851,-65.624 l -45.38,-45.38 19.728,-21.267 -2.32,-2.319 -21.267,19.729 -47.243,-47.244 19.731,-21.267 -2.321,-2.32 -21.267,19.731 -47.242,-47.244 19.729,-21.266 -2.32,-2.321 -21.268,19.73 -45.38,-45.381 c -0.621,-0.621 -1.254,-1.23 -1.889,-1.833 l 16.333,-17.604 c -1.11,-0.645 -2.221,-1.275 -3.342,-1.889 l -17.078,15.844 c -15.123,-12.72 -33.574,-20.085 -53.142,-22.253 l 10.919,-11.715 c -1.371,-0.128 -2.744,-0.235 -4.118,-0.325 l -12.409,11.563 c -18.038,-1.078 -36.83,2.161 -54.691,9.609 16.501,-5.732 33.663,-7.462 49.829,-5.079 l -7.989,7.445 -16.925,15.775 c -19.821,-10.426 -44.368,-9.017 -62.913,4.227 16.217,-9.911 37.816,-7.875 51.817,6.111 l -30.858,28.758 -28.758,30.858 c -13.986,-14.002 -16.023,-35.599 -6.112,-51.816 -13.244,18.545 -14.652,43.091 -4.228,62.911 l -15.774,16.927 -7.443,7.989 c -2.385,-16.166 -0.655,-33.328 5.076,-49.829 -7.445,17.86 -10.684,36.652 -9.607,54.689 l -11.565,12.411 c 0.091,1.373 0.198,2.748 0.326,4.118 l 11.714,-10.917 c 2.169,19.564 9.535,38.015 22.253,53.139 l -15.842,17.078 c 0.615,1.121 1.245,2.234 1.888,3.341 l 17.605,-16.333 c 0.602,0.637 1.21,1.269 1.833,1.891 l 45.381,45.381 -19.73,21.266 2.319,2.32 21.267,-19.73 47.244,47.244 -19.73,21.267 2.321,2.319 21.266,-19.729 47.242,47.243 -19.729,21.267 2.321,2.32 21.268,-19.729 45.38,45.381 c 0.622,0.622 1.253,1.229 1.889,1.831 l -16.332,17.606 c 1.108,0.645 2.221,1.273 3.341,1.888 l 17.078,-15.844 c 15.122,12.721 33.574,20.086 53.141,22.255 l -10.919,11.715 c 1.371,0.128 2.746,0.234 4.119,0.326 l 12.409,-11.566 c 18.038,1.079 36.829,-2.161 54.69,-9.607 -16.501,5.731 -33.661,7.462 -49.826,5.078 l 7.986,-7.445 16.927,-15.774 c 19.821,10.427 44.366,9.017 62.912,-4.226 -16.218,9.909 -37.817,7.873 -51.818,-6.114 l 30.86,-28.756 28.757,-30.86 c 13.986,14.002 16.022,35.6 6.113,51.817 C 59.331,73.247 60.741,48.702 50.314,28.88 L 66.088,11.954 73.533,3.966 c 2.383,16.165 0.653,33.327 -5.078,49.827"
             style="fill:#e39400;fill-opacity:1;fill-rule:evenodd;stroke:none"
             id="path6595" />
        </g>
        <g
           id="g6597"
           transform="translate(465.2549,518.4199)">
          <path
             d="m 0,0 v 0 c 36.419,-36.417 36.419,-96.009 0,-132.427 l -118.852,-118.852 c -36.418,-36.417 -96.008,-36.417 -132.425,0 -36.418,36.418 -36.418,96.009 0,132.426 L -132.426,0 C -96.009,36.417 -36.417,36.417 0,0"
             style="fill:#ffcc00;fill-opacity:1;fill-rule:evenodd;stroke:none"
             id="path6599" />
        </g>
        <g
           id="g6601"
           transform="translate(187.2822,344.1201)">
          <path
             d="m 0,0 c 2.318,20.298 11.212,39.966 26.695,55.447 l 94.972,94.974 c -2.814,-20.84 -12.196,-40.948 -28.159,-56.912 z"
             style="fill:#ffbb00;fill-opacity:1;fill-rule:evenodd;stroke:none"
             id="path6603" />
        </g>
        <g
           id="g6605"
           transform="translate(415.6426,366.7607)">
          <path
             d="M 0,0 42.911,42.91 11.984,71.6 -16.705,102.527 -59.617,59.616 -28.69,30.926 Z M -51.1,-51.102 -8.19,-8.19 -39.117,20.499 -67.808,51.426 -110.717,8.517 -79.79,-20.175 Z m -51.099,-51.099 42.909,42.91 -30.928,28.69 -28.69,30.927 -42.909,-42.911 30.927,-28.69 z m -6.254,207.122 7.671,-7.117 28.083,-26.051 43.856,43.856 -26.051,28.082 -7.117,7.673 z m -51.101,-51.1 7.672,-7.117 28.083,-26.053 43.856,43.858 -26.051,28.082 -7.118,7.672 z m -51.1,-51.1 7.673,-7.118 28.082,-26.052 43.856,43.857 -26.051,28.083 -7.118,7.672 z M 73.783,109.63 c 1.434,-5.419 2.372,-10.943 2.824,-16.502 L 54.301,113.917 25.543,144.776 -8.516,110.717 22.411,82.027 51.101,51.1 76.503,76.503 C 75.308,63.876 71.571,51.45 65.297,40.079 l -2.061,-2.061 0.544,-0.585 c -1.746,-2.929 -3.666,-5.782 -5.757,-8.542 l -2.03,1.883 -43.856,-43.857 2.482,-2.677 -7.048,-7.051 -2.678,2.485 -43.858,-43.858 2.485,-2.676 -7.05,-7.051 -2.678,2.484 -43.856,-43.858 0.005,-0.006 c -11.379,-6.281 -23.814,-10.021 -36.45,-11.219 l 16.118,16.118 -30.926,28.691 -28.691,30.927 -39.689,-39.691 c -3.778,4.915 -7.002,10.128 -9.669,15.551 l 37.221,37.222 -26.05,28.083 -7.117,7.672 -11.548,-11.547 c 3.66,16.995 12.055,33.151 25.195,46.291 l 118.852,118.852 c 15.945,15.945 36.333,24.909 57.273,26.89 -10.144,-4.138 -19.482,-10.197 -27.503,-18.216 l -4.31,-4.311 7.672,-7.118 28.081,-26.051 27.575,27.573 c 2.515,2.516 5.206,4.758 8.03,6.731 l -14.576,15.64 -5.169,5.548 c 3.067,-0.354 6.119,-0.855 9.143,-1.51 l 0.035,-0.03 16.926,-15.774 c 3.668,1.929 7.497,3.452 11.42,4.57 3.56,-2.141 7.002,-4.541 10.307,-7.197 -3.838,-1.947 -7.434,-4.517 -10.632,-7.713 l 30.859,-28.756 z"
             style="fill:#f5ac00;fill-opacity:1;fill-rule:evenodd;stroke:none"
             id="path6607" />
        </g>
        <g
           id="g6609"
           transform="translate(204.0137,360.8525)">
          <path
             d="M 0,0 -3.684,3.971 -15.232,-7.576 c 3.661,16.995 12.056,33.151 25.196,46.291 l 94.971,94.973 c -1.402,-10.396 -4.442,-20.607 -9.116,-30.215 L 52.075,59.729 56.044,56.046 51.101,51.1 47.417,55.071 0.975,8.629 4.944,4.945 Z"
             style="fill:#e39400;fill-opacity:1;fill-rule:evenodd;stroke:none"
             id="path6611" />
        </g>
        <g
           id="g6613"
           transform="translate(473.4473,442.5352)">
          <path
             d="M 0,0 -20.042,21.604 -41.646,41.646 -26.224,57.068 -6.135,35.511 15.422,15.422 Z m -51.102,-51.102 -20.042,21.606 -21.603,20.041 24.253,24.253 20.041,-21.604 21.604,-20.042 z m -51.099,-51.099 24.251,24.253 -21.603,20.042 -20.041,21.603 -24.254,-24.253 21.605,-20.041 z m -51.101,-51.1 -20.041,21.604 -21.605,20.042 24.253,24.252 20.043,-21.604 21.602,-20.042 z m -51.1,-51.101 24.253,24.253 -21.605,20.042 -20.042,21.603 -24.253,-24.253 21.605,-20.041 z m -42.27,-42.27 -20.091,21.558 -21.556,20.089 15.423,15.421 20.041,-21.604 21.605,-20.041 z m 156.454,333.376 16.845,-15.625 17.646,17.647 -10.152,10.892 c -8.888,-2.732 -17.127,-7.04 -24.339,-12.914 m -51.367,-50.853 17.11,-15.872 26.548,26.546 -15.872,17.11 z m -51.1,-51.101 17.111,-15.872 26.547,26.547 -15.871,17.11 z m -51.099,-51.101 17.108,-15.872 26.547,26.547 -15.871,17.111 z m -51.101,-51.1 17.109,-15.872 26.547,26.547 -15.873,17.109 z m -35.983,-47.921 10.891,-10.15 17.647,17.646 -15.624,16.844 c -5.875,-7.213 -10.183,-15.452 -12.914,-24.34 M 45.059,-48.571 c 5.873,7.213 10.18,15.45 12.914,24.339 L 47.079,-14.081 29.433,-31.727 Z M -5.796,-99.938 21.989,-72.152 4.879,-56.28 -21.669,-82.829 Z m -51.101,-51.099 27.785,27.784 -17.111,15.872 -26.546,-26.548 z m -51.1,-51.102 27.786,27.785 -17.111,15.872 -26.546,-26.546 z m -51.1,-51.101 27.783,27.786 -17.108,15.872 -26.548,-26.548 z m -47.921,-35.982 c 8.889,2.733 17.127,7.04 24.338,12.914 l -16.842,15.625 -17.647,-17.647 z M 31.224,72.869 25.206,76.547 C 17.7,81.133 8.684,82.002 0.66,79.407 L 19.864,61.51 37.761,42.306 c 2.593,8.024 1.726,17.04 -2.861,24.546 z m -304.781,-341.88 -19.205,17.898 -17.896,19.204 c -2.594,-8.025 -1.727,-17.04 2.861,-24.546 l 3.677,-6.018 6.018,-3.678 c 7.507,-4.587 16.523,-5.454 24.545,-2.86"
             style="fill:#ffe045;fill-opacity:1;fill-rule:evenodd;stroke:none"
             id="path6615" />
        </g>
        <g
           id="g6617"
           transform="translate(283.1055,173.335)">
          <path
             d="m 0,0 c -5.697,-0.485 -11.467,-0.33 -17.216,0.483 l -9.611,-9.613 10.151,-10.891 c 8.889,2.732 17.127,7.039 24.338,12.913 z m -83.215,0.189 -16.58,15.452 c -5.492,-1.308 -10.858,-3.18 -16.006,-5.605 l 2.023,-3.309 6.018,-3.678 c 7.507,-4.587 16.523,-5.454 24.545,-2.86"
             style="fill:#f5d329;fill-opacity:1;fill-rule:evenodd;stroke:none"
             id="path6619" />
        </g>
        <g
           id="g6621"
           transform="translate(162.6016,293.8398)">
          <path
             d="m 0,0 c -0.486,-5.698 -0.332,-11.468 0.48,-17.216 l -9.611,-9.611 -10.891,10.15 c 2.731,8.888 7.039,17.127 12.914,24.34 z M 15.641,-99.796 0.187,-83.214 c -2.593,-8.024 -1.726,-17.04 2.862,-24.546 l 3.677,-6.017 3.311,-2.023 c 2.423,5.147 4.296,10.513 5.604,16.004"
             style="fill:#f5d329;fill-opacity:1;fill-rule:evenodd;stroke:none"
             id="path6623" />
        </g>
        <g
           id="g6625"
           transform="translate(168.3008,345.2998)">
          <path
             d="M 0,0 0.055,0.069 0.015,0.027 Z"
             style="fill:#ffffff;fill-opacity:1;fill-rule:evenodd;stroke:none"
             id="path6627" />
        </g>
        <g
           id="g6629"
           transform="translate(272.877,574.0972)">
          <path
             d="m 0,0 1.83,-1.83 c 35.403,-35.403 35.403,-93.152 0,-128.555 l -95.284,-95.284 c -27.207,-27.207 -33.415,-67.192 -15.745,-101.37 14.329,-27.715 9.899,-62.748 -13.291,-85.937 l -1.26,-1.261 -29.447,29.447 c -51.289,51.289 -51.289,134.954 0,186.244 l 147.42,147.419 c 13.379,13.382 16.016,33.379 6.559,49.771 z"
             style="fill:#94ab13;fill-opacity:1;fill-rule:evenodd;stroke:none"
             id="path6631" />
        </g>
        <g
           id="g6633"
           transform="translate(159.7275,318.6768)">
          <path
             d="m 0,0 c -9.027,-22.691 -8.01,-48.483 3.95,-71.618 14.329,-27.715 9.9,-62.748 -13.291,-85.938 l -1.259,-1.26 -29.448,29.447 c -36.901,36.901 -47.252,90.561 -31.053,136.864 -3.651,-47.162 16.192,-80.704 43.737,-109.752 10.734,-11.319 23.237,-5.12 20.048,10.151 -5.506,26.367 -21.368,60.403 7.313,92.108 z"
             style="fill:#82970a;fill-opacity:1;fill-rule:evenodd;stroke:none"
             id="path6635" />
        </g>
        <g
           id="g6637"
           transform="translate(281.7803,551.1938)">
          <path
             d="m 0,0 c -0.99,-10.678 -5.671,-20.969 -13.804,-29.102 l -55.884,-55.885 -80.961,-86.608 88.764,79.913 -95.399,-96.505 83.378,78.664 -69.552,-74.239 52.263,48.391 -67.211,-74.5 125.555,123.442 -79.085,-88.485 55.304,50.326 -94.017,-100.653 127.656,125.637 -86.185,-94.271 94.25,94.249 C 11.957,-72.74 16.934,-32.01 0,0"
             style="fill:#bad526;fill-opacity:1;fill-rule:evenodd;stroke:none"
             id="path6639" />
        </g>
        <g
           id="g6641"
           transform="translate(484.0762,319.7197)">
          <path
             d="m 0,0 -12.862,-12.863 19.728,-21.267 -2.32,-2.319 -21.267,19.729 -47.243,-47.244 19.731,-21.266 -2.321,-2.321 -21.267,19.731 -47.243,-47.243 19.73,-21.267 -2.32,-2.32 -21.268,19.729 -45.38,-45.381 c -0.621,-0.621 -1.254,-1.23 -1.889,-1.833 l 16.333,-17.604 c -1.11,-0.645 -2.221,-1.275 -3.342,-1.889 l -17.078,15.844 c -15.123,-12.72 -33.574,-20.085 -53.142,-22.253 l 10.919,-11.715 c -1.371,-0.128 -2.744,-0.235 -4.118,-0.325 l -12.409,11.563 c -18.038,-1.078 -36.83,2.162 -54.691,9.609 16.501,-5.732 33.663,-7.462 49.829,-5.078 l -7.989,7.444 -16.925,15.775 c -19.821,-10.425 -44.368,-9.017 -62.913,4.227 16.217,-9.911 37.816,-7.875 51.817,6.111 l -26.412,24.615 c 4.511,0.815 9.086,1.256 13.678,1.314 l 18.651,-20.013 13.8,13.802 c 2.156,-0.889 4.285,-1.873 6.383,-2.957 3.646,-1.885 7.364,-3.466 11.126,-4.754 l -11.74,-11.741 c -2.518,-2.516 -5.206,-4.758 -8.032,-6.731 l 14.576,-15.64 9.714,-10.422 c 16.033,3.394 30.851,10.981 42.758,22.886 l 4.31,4.31 -7.671,7.118 -7.358,6.826 c 3.113,0.468 6.195,1.129 9.233,1.983 l 3.337,-3.597 7.116,-7.671 46.443,46.443 -3.97,3.682 4.944,4.946 3.685,-3.971 46.442,46.442 -3.97,3.685 4.945,4.944 3.683,-3.969 43.745,43.743 C -20.793,-4.439 -10.488,-1.387 0,0"
             style="fill:#c27e00;fill-opacity:1;fill-rule:evenodd;stroke:none"
             id="path6643" />
        </g>
        <g
           id="g6645"
           transform="translate(563.3623,283.6113)">
          <path
             d="m 0,0 -1.83,1.83 c -35.402,35.402 -93.152,35.402 -128.553,0 l -95.285,-95.285 c -27.207,-27.205 -67.191,-33.413 -101.37,-15.744 -27.715,14.33 -62.747,9.898 -85.938,-13.291 l -1.259,-1.261 29.446,-29.446 c 51.289,-51.289 134.955,-51.289 186.244,0 L -51.126,-5.779 c 13.382,13.382 33.379,16.018 49.77,6.562 z"
             style="fill:#94ab13;fill-opacity:1;fill-rule:evenodd;stroke:none"
             id="path6647" />
        </g>
        <g
           id="g6649"
           transform="translate(307.9424,170.46)">
          <path
             d="m 0,0 c -22.692,-9.025 -48.483,-8.007 -71.618,3.952 -27.715,14.33 -62.747,9.898 -85.938,-13.291 l -1.259,-1.261 29.446,-29.446 c 36.901,-36.901 90.561,-47.251 136.865,-31.054 -47.162,-3.649 -80.704,16.194 -109.753,43.739 -11.318,10.732 -5.12,23.235 10.152,20.045 26.367,-5.504 60.402,-21.367 92.106,7.313 z"
             style="fill:#82970a;fill-opacity:1;fill-rule:evenodd;stroke:none"
             id="path6651" />
        </g>
        <g
           id="g6653"
           transform="translate(540.46,292.5127)">
          <path
             d="m 0,0 c -10.678,-0.99 -20.969,-5.668 -29.102,-13.801 l -55.885,-55.884 -86.609,-80.96 79.913,88.761 -96.504,-95.398 78.663,83.377 -74.239,-69.551 48.39,52.262 -74.499,-67.211 123.442,125.556 -88.485,-79.085 50.327,55.304 -100.654,-94.015 125.637,127.653 -94.27,-86.185 94.249,94.251 C -72.739,11.96 -32.011,16.936 0,0"
             style="fill:#bad526;fill-opacity:1;fill-rule:evenodd;stroke:none"
             id="path6655" />
        </g>
        <g
           id="g6657"
           transform="translate(575.1211,589.0303)">
          <path
             d="m 0,0 c 7.789,-7.788 7.789,-20.417 0,-28.205 -3.247,-3.249 -7.338,-5.141 -11.569,-5.679 0.46,-0.39 0.906,-0.802 1.34,-1.234 1.924,-1.924 3.414,-4.118 4.47,-6.459 3.834,-0.826 7.483,-2.729 10.461,-5.708 8.247,-8.247 8.247,-21.617 0,-29.863 -3.562,-3.563 -8.082,-5.586 -12.73,-6.07 0.23,-7.649 -2.572,-15.372 -8.409,-21.21 -11.233,-11.233 -29.445,-11.233 -40.678,0 -6.818,6.819 -9.497,16.209 -8.036,25.049 -7.743,-1.777 -16.198,0.347 -22.228,6.378 -5.671,5.67 -7.889,13.487 -6.655,20.836 -3.021,0.768 -5.882,2.334 -8.244,4.698 -7.009,7.008 -7.009,18.369 0,25.376 4.557,4.559 10.96,6.151 16.805,4.779 -0.501,7.548 2.133,15.267 7.903,21.037 10.619,10.618 27.833,10.618 38.451,0 3.035,-3.035 5.2,-6.606 6.5,-10.411 0.973,2.434 2.445,4.715 4.416,6.686 C -20.415,7.789 -7.787,7.789 0,0"
             style="fill:#663c12;fill-opacity:1;fill-rule:evenodd;stroke:none"
             id="path6659" />
        </g>
        <g
           id="g6661"
           transform="translate(498.1328,540.7598)">
          <path
             d="m 0,0 c -3.259,-0.799 -6.841,0.074 -9.386,2.618 -3.874,3.874 -3.874,10.154 0,14.028 2.207,2.207 5.197,3.156 8.078,2.849 0.572,4.028 2.406,7.911 5.504,11.009 7.598,7.597 19.916,7.597 27.513,0 0.783,-0.784 1.486,-1.619 2.107,-2.493 6.724,3.856 15.448,2.913 21.19,-2.83 6.741,-6.741 6.869,-17.588 0.386,-24.487 2.34,-0.56 4.561,-1.752 6.388,-3.58 4.947,-4.946 5.249,-12.779 0.908,-18.078 5.733,-6.333 5.544,-16.117 -0.561,-22.224 -6.3,-6.3 -16.515,-6.3 -22.813,0 -1.764,1.764 -3.035,3.835 -3.811,6.041 -5.226,-1.54 -11.108,-0.247 -15.231,3.876 -2.896,2.896 -4.395,6.66 -4.498,10.455 -3.506,0.948 -6.82,2.799 -9.574,5.552 C 1.477,-12.542 -0.59,-6.168 0,0"
             style="fill:#8c5c2b;fill-opacity:1;fill-rule:evenodd;stroke:none"
             id="path6663" />
        </g>
        <g
           id="g6665"
           transform="translate(534.4287,497.4771)">
          <path
             d="m 0,0 c 3.045,-3.045 3.045,-7.981 0,-11.025 -3.046,-3.045 -7.981,-3.045 -11.025,0 -3.045,3.044 -3.045,7.98 0,11.025 C -7.981,3.044 -3.046,3.044 0,0 m 39.379,31.203 c 1.184,-1.185 1.184,-3.103 0,-4.286 -1.184,-1.184 -3.103,-1.184 -4.286,0 -1.183,1.183 -1.183,3.101 0,4.286 1.183,1.183 3.102,1.183 4.286,0 m -4.846,12.31 c 1.869,-1.867 1.869,-4.896 0,-6.763 -1.866,-1.867 -4.893,-1.867 -6.762,0 -1.867,1.867 -1.867,4.896 0,6.763 1.869,1.868 4.896,1.868 6.762,0 M 4.055,76.759 c -2.445,2.443 -6.406,2.443 -8.85,0 -2.442,-2.443 -2.442,-6.405 0,-8.848 2.444,-2.445 6.405,-2.445 8.85,0 2.442,2.443 2.442,6.405 0,8.848 m 20.877,2.35 c -1.681,1.68 -4.405,1.68 -6.084,0 -1.68,-1.679 -1.68,-4.403 0,-6.083 1.679,-1.68 4.403,-1.68 6.084,0 1.679,1.68 1.679,4.404 0,6.083 M -48.416,63.97 c 2.024,-2.023 2.024,-5.304 0,-7.327 -2.023,-2.024 -5.304,-2.024 -7.327,0 -2.023,2.023 -2.023,5.304 0,7.327 2.023,2.024 5.304,2.024 7.327,0 m 37.781,15.451 c 3.151,-3.15 3.151,-8.257 0,-11.406 -0.346,-0.347 -0.717,-0.655 -1.104,-0.925 1.975,-0.676 3.831,-1.803 5.407,-3.379 1.648,-1.648 2.805,-3.601 3.47,-5.678 6.298,5.481 15.855,5.225 21.848,-0.768 6.262,-6.262 6.262,-16.413 0,-22.675 -0.167,-0.167 -0.338,-0.329 -0.508,-0.488 0.489,-0.378 0.958,-0.792 1.408,-1.24 5.726,-5.727 5.726,-15.012 0,-20.739 -5.727,-5.727 -15.013,-5.727 -20.74,0 -0.275,0.275 -0.536,0.56 -0.785,0.851 -6.266,-2.128 -13.473,-0.696 -18.467,4.299 -3.974,3.974 -5.693,9.349 -5.158,14.535 -2.6,-0.44 -5.365,0.344 -7.371,2.35 -3.09,3.09 -3.278,7.985 -0.56,11.295 -1.061,1.168 -1.814,2.514 -2.264,3.936 -1.075,0.603 -2.087,1.362 -3,2.277 -5.383,5.383 -5.383,14.111 0,19.494 3.811,3.813 9.301,4.924 14.093,3.336 0.175,1.798 0.949,3.548 2.325,4.925 3.149,3.15 8.257,3.15 11.406,0"
             style="fill:#bf8b58;fill-opacity:1;fill-rule:evenodd;stroke:none"
             id="path6667" />
        </g>
      </g>
    </g>
  </g>
</svg>
